Coordinates
version=1
nRows=17
nColumns=36
inDegrees=yes

Units are S.I. units (second, meters, Newtons, ...)
If the header above contains a line with 'inDegrees', this indicates whether rotational values are in degrees (yes) or radians (no).

endheader
time	pelvis_tilt	pelvis_list	pelvis_rotation	pelvis_tx	pelvis_ty	pelvis_tz	hip_flexion_r	hip_adduction_r	hip_rotation_r	knee_angle_r	knee_angle_r_beta	ankle_angle_r	subtalar_angle_r	mtp_angle_r	hip_flexion_l	hip_adduction_l	hip_rotation_l	knee_angle_l	knee_angle_l_beta	ankle_angle_l	subtalar_angle_l	mtp_angle_l	lumbar_extension	lumbar_bending	lumbar_rotation	arm_flex_r	arm_add_r	arm_rot_r	elbow_flex_r	pro_sup_r	arm_flex_l	arm_add_l	arm_rot_l	elbow_flex_l	pro_sup_l
      4.04583330	    -16.78937907	      1.68065866	     -0.93107231	      0.21157570	      0.83488207	     -0.07002154	     50.59284563	    -11.11278249	      4.01325941	     60.93576869	      1.06352980	     26.02353561	    -12.57566120	     -7.49999987	     50.67650274	     -5.82153446	     -1.58047341	     64.06909683	      1.11821669	     19.23775662	    -19.28996041	     -7.49999987	    -25.40956501	     -1.26051454	     -0.40001419	     20.42941524	    -16.64326718	     20.87817463	     78.61806565	     86.04523672	     22.82080361	    -18.15025436	     19.20574395	     76.98152284	     72.09133423
      4.05000000	    -16.60802829	      1.60419215	     -1.27136139	      0.21171883	      0.83510375	     -0.07000706	     49.96627145	    -10.78942973	      4.05558846	     60.07420265	      1.04849263	     25.73675125	    -12.22539032	     -7.49999987	     50.07368994	     -6.09794808	     -1.77667381	     63.52560632	      1.10873099	     18.83882181	    -19.85733568	     -7.49999987	    -25.16812562	     -1.16230741	     -0.06891834	     20.14942925	    -16.53706423	     20.40724288	     77.21966380	     85.15693768	     22.47056153	    -17.89890753	     19.36232344	     75.90833923	     71.53958890
      4.05416670	    -16.61512930	      1.55402441	     -1.51821606	      0.21171359	      0.83504062	     -0.06981154	     49.73574620	    -10.58213730	      4.10458174	     59.66365235	      1.04132718	     25.61375953	    -12.16726386	     -7.49999987	     49.85626188	     -6.29553080	     -2.02550091	     63.25740324	      1.10404996	     18.66435487	    -19.97783910	     -7.49999987	    -24.62185496	     -1.14395334	      0.49270616	     19.13257760	    -16.37154742	     18.80569549	     76.00097010	     87.44661714	     22.26095055	    -17.69682973	     20.02809960	     74.31948249	     71.13096154
      4.05833330	    -16.64369636	      1.48237669	     -1.74986194	      0.21226297	      0.84144800	     -0.07013557	     49.19471098	    -10.22340296	      4.26989157	     58.60324047	      1.02281950	     25.07248191	    -12.32053365	     -7.49999987	     49.34590552	     -6.30251712	     -2.04653952	     62.38347308	      1.08879700	     18.09476529	    -20.42934607	     -7.49999987	    -24.29674940	     -1.13111966	      0.58502613	     18.46321671	    -16.08782811	     18.04134051	     74.41849075	     87.36912090	     21.31978358	    -17.77912225	     19.57420017	     73.39313406	     71.01335810
      4.06250000	    -16.86754366	      1.56289634	     -1.87383611	      0.21237126	      0.83813667	     -0.06957509	     49.28430750	    -10.05001577	      4.57368782	     58.28705698	      1.01730106	     24.95425662	    -12.42981572	     -7.49999987	     49.43302371	     -6.20812140	     -2.09396565	     62.10441188	      1.08392647	     17.92291220	    -20.57633881	     -7.49999987	    -23.62789282	     -1.27200027	      0.50710123	     17.89280622	    -15.80566725	     17.40628522	     72.69202198	     86.18507247	     20.51203003	    -17.91178476	     19.10616425	     72.22433081	     70.35435666
      4.06666670	    -17.17747805	      1.55828045	     -1.98260002	      0.21264174	      0.83818056	     -0.06971927	     49.42258337	     -9.77186646	      4.92654107	     57.95971170	      1.01158780	     24.78194895	    -12.85737840	     -7.49999987	     49.69512317	     -6.20971118	     -2.01983971	     61.93023717	      1.08088655	     17.73525692	    -20.59634070	     -7.49999987	    -22.84050251	     -1.32799851	      0.33903266	     17.27037273	    -15.49039093	     16.70108972	     71.01536924	     85.16917055	     19.71074382	    -17.98856812	     18.79280114	     71.06942463	     69.75705756
      4.07083330	    -17.58194658	      1.43658931	     -1.96421601	      0.21268748	      0.84120299	     -0.06994062	     49.48692529	     -9.64891471	      4.92465339	     57.22013142	      0.99867969	     24.44074110	    -12.76778236	     -7.49999987	     50.07125875	     -6.24295963	     -1.85228789	     61.63745403	      1.07577652	     17.51158228	    -20.49613226	     -7.49999987	    -22.08852235	     -1.25773600	      0.22753269	     16.48492526	    -15.10120878	     15.95487908	     69.60151951	     84.86175199	     18.95283866	    -18.18325762	     18.62011359	     70.12496435	     69.64515609
      4.07500000	    -17.82275528	      1.47826498	     -1.91677022	      0.21293480	      0.84144292	     -0.07001991	     49.51581005	     -9.68864011	      5.04784494	     56.71818364	      0.98991905	     24.20515861	    -12.66743009	     -7.49999987	     50.20968602	     -6.11564000	     -1.83197975	     61.42046368	      1.07198932	     17.47811164	    -20.33230596	     -7.49999987	    -21.29263542	     -1.19533415	      0.11839311	     15.79018686	    -14.66740115	     15.27384811	     68.13849988	     84.01521345	     18.41701356	    -18.27308546	     18.58242872	     68.96713959	     69.16088928
      4.07916670	    -18.03150916	      1.46229911	     -1.85305326	      0.21308740	      0.84462567	     -0.07033028	     49.26347553	     -9.59397177	      5.20748541	     55.85038172	      0.97477305	     23.65675403	    -12.99513420	     -7.49999987	     50.08242764	     -5.89208952	     -1.67525412	     60.76353285	      1.06052371	     17.20953601	    -20.60224606	     -7.49999987	    -20.64161602	     -1.08522772	      0.03901845	     14.95419578	    -14.25107126	     14.66430073	     66.85664162	     83.40551039	     18.03408079	    -18.43901970	     18.75865132	     68.09490530	     68.92340396
      4.08333330	    -18.23515554	      1.51539972	     -1.95002013	      0.21337982	      0.84478739	     -0.07045109	     49.27094629	     -9.47922487	      5.47627625	     55.37355357	      0.96645083	     23.25922152	    -13.28945760	     -7.49999987	     49.99425193	     -5.74632290	     -1.64497669	     60.26784613	      1.05187235	     17.09639994	    -20.88648558	     -7.49999987	    -19.95363962	     -1.05788241	      0.07621679	     14.10585574	    -13.87119611	     14.16450743	     65.72455603	     82.86764328	     17.61192374	    -18.63080987	     18.93756752	     67.44427137	     68.68660627
      4.08750000	    -18.28767413	      1.48542182	     -2.03875906	      0.21367083	      0.85071027	     -0.07037888	     48.87303622	     -9.27777202	      5.63534084	     54.50256921	      0.95124928	     22.61768066	    -13.52979277	     -7.49999987	     49.58809169	     -5.66067701	     -1.54593682	     59.46918436	      1.03793307	     16.70074309	    -21.15849166	     -7.49999987	    -19.58909625	     -0.98300244	      0.00876797	     13.32276599	    -13.25736824	     13.39789052	     64.28676322	     82.94583156	     17.36251200	    -18.74529960	     19.08269264	     66.39735039	     68.66892558
      4.09166670	    -18.20957224	      1.50399965	     -2.07226955	      0.21811007	      0.84790002	     -0.07515729	     48.50891536	     -9.43605355	      5.75214651	     54.23221364	      0.94653069	     22.60336606	    -13.56228630	     -7.49999987	     49.23487135	     -5.47738128	     -1.55926931	     59.34786746	      1.03581569	     16.81207528	    -21.33242435	     -7.49999987	    -19.32482367	     -0.75216124	     -0.08753446	     12.30813189	    -13.41441032	     13.24883403	     63.76097634	     82.90995176	     16.61797547	    -18.80469354	     19.25615516	     66.11279883	     68.65703624
      4.09583330	    -18.24588584	      1.56221874	     -1.90338145	      0.21804893	      0.85093242	     -0.07510120	     48.15712976	     -9.66025273	      5.79685102	     53.68516328	      0.93698286	     22.11480958	    -13.82252937	     -7.49999987	     49.04003427	     -5.07831080	     -1.37594293	     59.00579200	      1.02984535	     16.17953579	    -22.04177800	     -7.49999987	    -18.89239538	     -0.65059557	     -0.17278509	     11.49032157	    -12.93018409	     11.80664060	     61.97327013	     82.13110817	     16.06471264	    -18.62715342	     19.26668726	     64.68541196	     68.28296132
      4.10000000	    -18.24025595	      1.40399081	     -1.75463629	      0.21871382	      0.85399415	     -0.07571315	     47.54707902	     -9.65859185	      5.69697501	     52.85006191	      0.92240759	     21.91419227	    -14.11995008	     -7.49999987	     48.77948151	     -4.98457283	     -1.15227224	     58.66319666	      1.02386593	     15.72303569	    -22.54953211	     -7.49999987	    -18.64195914	     -0.28438453	     -0.17218887	     10.69971505	    -12.96599451	     10.92282870	     61.12444502	     81.75825135	     15.33484825	    -18.64306827	     19.16732935	     63.47531922	     68.10504919
      4.10416670	    -18.33906286	      1.24318383	     -1.47046428	      0.21881638	      0.85377078	     -0.07582141	     47.20643615	     -9.64511183	      5.60296986	     52.28226360	      0.91249764	     21.54859784	    -14.54041309	     -7.49999987	     48.66903007	     -4.70608661	     -0.64201728	     58.19196507	      1.01564139	     15.02696926	    -23.32301925	     -7.49999987	    -18.19713262	     -0.03277466	     -0.30453109	      9.87879960	    -12.93639303	     10.10288376	     60.35882806	     81.12960605	     14.74177336	    -18.63586551	     19.02255702	     62.25905400	     67.78291739
      4.10833330	    -18.42188489	      1.15370043	     -1.44628464	      0.21924879	      0.85405021	     -0.07582849	     47.03422112	     -9.53072080	      5.60156718	     51.91439181	      0.90607707	     21.77745319	    -14.52597906	     -7.49999987	     48.56926474	     -4.67983253	     -0.52084015	     57.84782760	      1.00963506	     15.37658273	    -23.05388778	     -7.49999987	    -17.77572817	     -0.00935170	     -0.32693629	      9.07437847	    -13.16813107	      9.85737698	     60.18893034	     80.56639998	     13.85571480	    -18.85300433	     19.02067695	     61.94273254	     67.55643905
      4.11250000	    -18.63794234	      1.06555411	     -1.15897052	      0.22328317	      0.85401379	     -0.08062317	     46.90767251	     -9.76780105	      5.33477619	     51.78050374	      0.90374028	     21.95124548	    -14.59212133	     -7.49999987	     48.57697919	     -4.25065811	     -0.10377210	     57.51534086	      1.00383207	     15.07714765	    -23.75474897	     -7.49999987	    -16.70598362	      0.23840336	     -0.60718759	      8.52004993	    -13.15237757	      9.12714306	     58.85665547	     80.64473722	     13.05875847	    -18.41629229	     19.04573653	     60.29522392	     67.56878520
